<svg id="Calque_1" data-name="Calque 1" xmlns="http://www.w3.org/2000/svg" viewBox="0 0 428.15 377.57"><defs><style>.cls-1{fill:#fff;}.cls-2{fill:#fc8603;}.cls-3{fill:#ee891c;}.cls-4{fill:#d67002;}</style></defs><title>logo_light</title><path class="cls-1" d="M66.85,280.62l-7.75,6.05H48.76C103.92,191.11,158.92,95.89,214.28,0L379.74,286.5H370.3c-5.45-3.53-9.18-7.23-13.82-10.63-1.28-1.16-3.23-2.71-4.61-3.9q-57.45-49.35-115-98.58-11.1-9.51-22.29-19c-1.44,1-2.43,1.6-3.3,2.34q-47.71,40.78-95.41,81.62Q91.29,259.43,66.85,280.62Z" transform="translate(0 0)"/><path class="cls-1" d="M41,299.76H387.56l40.59,70.39H392.92l-10.34-18.24H357.7L342,377.57H85.73L70.84,351.88H46.14L34.74,370.3H0Zm339.33,8.08H47.92L16.83,362H29.45l24.67-41.14h9.35l29.27,48.72H335.06l29.56-48.77H374l24.77,41.37h12.58C400.57,343.26,390.41,325.46,380.36,307.84ZM58.23,328.57l-8,15.5H66.72Zm303,15.5h16.59l-8.37-15.15Z" transform="translate(0 0)"/><path class="cls-2" d="M281.92,226.73c3.11,2.56,5.79,4.49,8.9,7,.18.22.84.92,1.12.87h0c.09,1.1.18,2.19.28,3.48l9.72,4.49h0c.07,1.27.15,2.55.24,4.06h5.56c4.25,3.8,8.36,7.76,12.75,11.38,9.1,7.51,18.34,14.84,27.52,22.24.7.68,1.4,1.36,2.11,2l.1.08c-2,.75-3.92,2.13-5.89,2.14q-63.48.19-127,.1-67,0-134-.1c-2,0-3.92-1.41-5.88-2.17l.14-.09,2.12-2c9.83-8,19.69-16,29.48-24,15.33-12.59,30.58-25.28,45.94-37.83,6.6-5.39,13.47-10.45,20-15.86,11.73-9.66,23.33-19.48,35-29.22,1.13-.94,2.34-1.78,3.84-2.91l44,36.32c4.59,4.63,8.95,9.53,13.85,13.8C274.71,223.08,278.51,224.68,281.92,226.73Z" transform="translate(0 0)"/><path class="cls-3" d="M77.45,282.3c2,.76,4.06,2.17,6,2.17,44.67.13,89.39-1,134.06-1.09,42.33,0,84.63,1.05,127,1,2,0,3.77-1.28,5.73-2l1.9,2.16c-1.7.39-3.4,1.13-5.09,1.14q-133.56.08-267.12,0c-1.67,0-3.34-.82-5-1.26Z" transform="translate(0 0)"/><path class="cls-4" d="M74.84,284.36c1.67.44,3.34,1.26,5,1.26q133.56.09,267.12,0c1.69,0,3.39-.75,5.09-1.14l3.57,2H72.29Z" transform="translate(0 0)"/><path class="cls-3" d="M281.92,226.73c-3.42-2-7.22-3.65-10.17-6.22-4.9-4.27-9.26-9.17-13.85-13.8Z" transform="translate(0 0)"/><path class="cls-3" d="M302,242.63l-9.72-4.49c-.1-1.29-.19-2.38-.28-3.48Z" transform="translate(0 0)"/><path class="cls-3" d="M307.81,246.7h-5.56c-.09-1.51-.17-2.79-.24-4.06Z" transform="translate(0 0)"/><path class="cls-3" d="M79.84,280.31l-2.12,2Z" transform="translate(0 0)"/><path class="cls-3" d="M350.19,282.35c-.71-.67-1.41-1.35-2.11-2C348.78,281,349.48,281.68,350.19,282.35Z" transform="translate(0 0)"/><path class="cls-1" d="M232.44,320.93h40l5.39,4.36v15.45L274.51,345l3.32,4v11.74H267.2v-9.56l-4.9-5H243.05v14.7H232.44Zm10.9,8v9h24.32v-9Z" transform="translate(0 0)"/><path class="cls-1" d="M323.05,360.7v-9.52l-5.71-5.1H299.05v14.68H288.12V320.69c12.94,0,25.86-.22,38.75.21,2.37.07,4.66,2.8,6.85,4.22v15.1l-3.3,5.17c1.38,1.54,2.45,2.73,3.35,3.75V360.7Zm-24.1-22h18.46c6.86,0,8.64-3.47,5.09-9.78H298.92Z" transform="translate(0 0)"/><path class="cls-1" d="M192.25,343.62v9.12H223.7v8.05H182.41V320.87h41.42v7.47H192.3v8.14h31.56v7.14Z" transform="translate(0 0)"/><path class="cls-1" d="M146.09,360.76V328.64H128V321h46.81v7.47H156.36v32.32Z" transform="translate(0 0)"/><path class="cls-1" d="M93.14,360.84V321h9.78V353.1H133.4v7.74Z" transform="translate(0 0)"/></svg>